<svg width="496" height="497" viewBox="0 0 496 497" fill="none" xmlns="http://www.w3.org/2000/svg" class= "bouncy-bouncy">
<path d="M223.39 235.48C222.622 199.123 214.918 163.246 200.69 129.78C109.89 172.18 43.1898 252.18 20.3898 346.58C33.7328 377.152 53.0824 404.731 77.2898 427.68C100.31 347.632 152.42 279.08 223.39 235.48ZM186.49 101.08C171.281 74.5814 151.899 50.7084 129.09 30.38C38.0898 80.18 -15.7102 183.28 4.08976 292.58C37.4898 209.48 102.49 140.58 186.49 101.08ZM374.09 266.18C382.69 166.38 346.79 68.68 276.59 1.77996C261.89 0.0799594 224.99 -3.72004 177.69 10.28C235.561 70.2486 268.912 149.692 271.19 233C303.058 250.524 337.987 261.787 374.09 266.18ZM249.39 275.68C218.286 294.564 191.067 319.204 169.19 348.28C251.19 405.58 353.69 423.38 446.69 396.08C466.694 369.277 481.051 338.693 488.89 306.18C462.445 312.918 435.279 316.41 407.99 316.58C353.39 316.48 299.09 302.48 249.39 275.68ZM151.09 375.38C135.89 401.38 125.39 429.78 118.99 459.58C163.349 486.807 215.174 499.329 267.071 495.36C318.968 491.392 368.286 471.135 407.99 437.48C295.09 453.58 204.69 412.68 151.09 375.38ZM331.39 14.78C386.69 85.18 413.89 175.98 405.99 268.38C436.454 268.444 466.735 263.651 495.69 254.18C495.69 252.18 495.99 250.18 495.99 248.18C495.99 140.38 427.29 49.08 331.39 14.78Z" fill="url(#paint0_linear)"/>
<defs>
<linearGradient id="paint0_linear" x1="247.996" y1="0.000732422" x2="247.996" y2="496.08" gradientUnits="userSpaceOnUse">
<stop offset="0.201506" stop-color="#094120"/>
<stop offset="1" stop-color="#C82C42"/>
</linearGradient>
</defs>
</svg>
